<?xml version="1.0" encoding="UTF-8" standalone="no"?>
<!-- Created with Inkscape (http://www.inkscape.org/) -->

<svg
   xmlns:dc="http://purl.org/dc/elements/1.1/"
   xmlns:cc="http://creativecommons.org/ns#"
   xmlns:rdf="http://www.w3.org/1999/02/22-rdf-syntax-ns#"
   xmlns:svg="http://www.w3.org/2000/svg"
   xmlns="http://www.w3.org/2000/svg"
   xmlns:sodipodi="http://sodipodi.sourceforge.net/DTD/sodipodi-0.dtd"
   xmlns:inkscape="http://www.inkscape.org/namespaces/inkscape"
   width="6.8610001cm"
   height="1.8cm"
   viewBox="0 0 68.610001 17.999999"
   version="1.1"
   id="svg8"
   inkscape:version="0.92.2 (5c3e80d, 2017-08-06)"
   sodipodi:docname="logo.svg"
   inkscape:export-filename="C:\Users\Ola\Desktop\wizytowka_przod.png"
   inkscape:export-xdpi="96"
   inkscape:export-ydpi="96">
  <defs
     id="defs2" />
  <sodipodi:namedview
     id="base"
     pagecolor="#ffffff"
     bordercolor="#666666"
     borderopacity="1.0"
     inkscape:pageopacity="0.0"
     inkscape:pageshadow="2"
     inkscape:zoom="3.959798"
     inkscape:cx="120.18384"
     inkscape:cy="32.916674"
     inkscape:document-units="mm"
     inkscape:current-layer="layer1"
     showgrid="false"
     inkscape:window-width="1920"
     inkscape:window-height="1137"
     inkscape:window-x="1358"
     inkscape:window-y="-8"
     inkscape:window-maximized="1"
     units="cm" />
  <metadata
     id="metadata5">
    <rdf:RDF>
      <cc:Work
         rdf:about="">
        <dc:format>image/svg+xml</dc:format>
        <dc:type
           rdf:resource="http://purl.org/dc/dcmitype/StillImage" />
        <dc:title></dc:title>
      </cc:Work>
    </rdf:RDF>
  </metadata>
  <g
     inkscape:label="Layer 1"
     inkscape:groupmode="layer"
     id="layer1"
     transform="translate(0,-279.00002)">
    <path
       style="opacity:1;fill:#faf7f2;fill-opacity:1;stroke:none;stroke-width:0.63559544;stroke-miterlimit:4;stroke-dasharray:none;stroke-opacity:1"
       d="m 20.13586,279.00005 c -0.2572,0.002 -0.52362,0.0358 -0.78948,0.10602 -0.79856,0.21073 -1.04239,0.42681 -1.2804,1.13377 -0.44596,1.32443 0.0666,2.13607 1.6767,2.65911 1.05011,0.34098 1.30501,0.5387 1.36882,1.06146 0.10927,0.89525 -0.85628,1.13601 -1.80983,0.45141 -1.08009,-0.77542 -1.96956,-0.61361 -1.4869,0.27041 0.52603,0.96357 1.0584,1.25133 2.31484,1.25133 1.04639,0 1.34094,-0.11016 1.78748,-0.66672 v -9.6e-4 c 1.06678,-1.32931 0.47762,-2.89701 -1.28354,-3.41427 -1.17266,-0.34429 -1.6601,-0.80161 -1.44371,-1.35425 0.1929,-0.49287 1.29776,-0.49505 1.71416,-0.002 0.45738,0.54036 1.29029,0.48395 1.29029,-0.0873 0,-0.83056 -0.94393,-1.41759 -2.05843,-1.40782 z m 26.959844,0.0806 -0.53618,1.84521 c -0.43546,1.49858 -0.6412,1.86069 -1.09632,1.92635 -0.3986,0.0573 -0.56011,0.25784 -0.56011,0.69532 0,0.36459 0.15049,0.61474 0.36926,0.61474 0.29353,0 0.31983,0.16813 0.12907,0.82067 -0.13213,0.45125 -0.24028,0.84947 -0.24028,0.88515 0,0.0356 0.28499,0.065 0.63344,0.065 0.52131,0 0.66403,-0.15877 0.80559,-0.89813 l -5.2e-4,-9.5e-4 0.17155,-0.89869 1.05054,0.0765 c 0.94415,0.0689 1.07228,0.15931 1.26637,0.89814 0.17335,0.66021 0.34726,0.82224 0.88151,0.82224 0.42496,0 0.62151,-0.11431 0.544,-0.31621 -0.45793,-1.19448 -0.4725,-1.45463 -0.0801,-1.45463 0.25939,0 0.40461,-0.2268 0.40461,-0.6324 0,-0.4957 -0.13141,-0.6324 -0.60848,-0.6324 -0.53843,0 -0.66478,-0.21115 -1.09682,-1.83376 l -0.48784,-1.83375 -0.77489,-0.0738 z m -12.12749,0.0214 0.0884,1.39171 0.0889,1.3912 h -0.54034 c -0.40394,0 -0.53983,0.15931 -0.53983,0.6324 0,0.34774 0.0871,0.61925 0.19345,0.60276 0.70993,-0.10998 0.83887,0.10783 0.83887,1.42082 v 1.39118 h 2.19316 2.19363 l -9.5e-4,-0.63238 v -0.63242 h -1.67724 -1.67722 v -0.75878 -0.75877 h 1.54826 1.54822 v -0.63241 -0.6324 h -1.56539 -1.5654 l 0.0816,-0.69533 0.0815,-0.69587 1.5238,-0.12637 c 1.33539,-0.11089 1.53468,-0.1967 1.61117,-0.69535 l 0.0879,-0.56945 h -2.25657 z m -6.064504,5.4e-4 v 3.41477 3.41476 h 0.64487 0.64541 l -5.2e-4,-1.2648 v -1.26427 h 0.6012 c 0.468654,0 0.734414,0.27813 1.205524,1.26427 0.4712,0.98616 0.73644,1.2648 1.20499,1.2648 0.76397,0 0.75342,-0.36019 -0.0509,-1.73963 -0.55693,-0.95494 -0.59335,-1.14667 -0.2663,-1.39117 0.54657,-0.40871 0.88816,-1.46504 0.73227,-2.26438 -0.20674,-1.05974 -0.98168,-1.43435 -2.967514,-1.43435 z m -5.67709,5.1e-4 v 0.63189 c 0,0.55408 0.1116,0.6324 0.90284,0.6324 h 0.90336 v 2.80006 2.80004 l 0.58041,-0.0806 0.58091,-0.0801 v -2.65702 -2.656 l 0.83835,-0.079 c 0.69459,-0.0659 0.83887,-0.18491 0.83887,-0.69533 v -0.61629 h -2.32263 z m 17.547124,0 v 1.51755 1.51758 h -0.64539 c -0.51612,0 -0.6449,0.12655 -0.6449,0.6324 0,0.50592 0.12871,0.63242 0.6449,0.63242 h 0.64539 v 1.28249 1.28195 l 0.58039,-0.0806 0.58041,-0.0801 -0.0875,-1.2024 -0.088,-1.20135 h 1.44267 1.44216 v -0.63241 -0.6324 h -1.41926 -1.41929 v -0.8727 -0.87264 l 1.48378,-0.076 c 1.31445,-0.0673 1.49329,-0.14077 1.56643,-0.64489 l 0.0828,-0.56895 h -2.08235 z m -10.580274,1.26429 h 1.015184 c 0.79603,0 1.05092,0.11161 1.18264,0.51798 0.23797,0.73521 -0.31,1.25286 -1.326184,1.25286 h -0.87164 v -0.88517 z m 17.719794,0.13573 0.1841,0.7541 c 0.10135,0.41498 0.24454,0.95379 0.31828,1.19722 0.10332,0.34075 -0.0185,0.44256 -0.52839,0.44256 -0.36834,0 -0.65375,-0.14041 -0.6428,-0.31619 0.0108,-0.17389 0.16597,-0.71279 0.34427,-1.1972 z m -47.91137364,8.93582 v 3.6842 3.68467 h 0.50707 0.50656004 l 0.0738,-2.44849 0.0735,-2.44899 1.0318,2.44432 1.03235,2.44485 0.70989,0.004 0.70937,0.004 v -3.6675 -3.66755 h -0.50707 -0.50706 l -0.0727,2.57747 -0.0734,2.57746 -1.05002,-2.51401 c -0.93062,-2.22796 -1.12937,-2.52379 -1.74222004,-2.59461 z m 40.76978364,0 -0.009,2.61025 -0.009,2.61022 -1.11085,-2.52963 c -0.97392,-2.21775 -1.19521,-2.53904 -1.79686,-2.60917 l -0.68649,-0.0801 v 3.68469 3.68417 h 0.51591 0.51644 l 0.007,-2.46616 0.004,-5.4e-4 0.007,-2.46615 0.36301,0.6324 c 0.19972,0.34781 0.68691,1.45753 1.08279,2.46617 l 0.71977,1.83378 h 0.71458 0.71457 v -3.4148 c 0,-1.87811 0.0284,-3.50022 0.0641,-3.60459 0.0362,-0.1044 -0.19653,-0.22598 -0.51591,-0.27045 z m 16.5174,5.4e-4 v 3.68469 3.68416 h 0.50705 0.50655 l 0.0738,-2.45836 0.0733,-2.4589 1.04117,2.39545 1.04119,2.39597 0.76503,0.0727 0.76501,0.0735 v -3.61447 -3.61501 h -0.51591 -0.51642 l -0.079,2.52963 -0.0785,2.52961 -1.10567,-2.52961 c -0.96977,-2.21945 -1.18892,-2.53899 -1.79111,-2.60919 z m -13.47708,0.0162 c -0.52653,6.6e-4 -0.57393,0.79075 -0.50862,3.77831 l 0.0779,3.57393 h 0.63137 0.63188 v -3.54948 c 0,-2.92139 -0.0691,-3.57478 -0.38746,-3.69457 -0.17713,-0.0666 -0.32366,-0.10837 -0.44516,-0.10819 z m 4.62862,0.0162 c -1.8392,0 -2.92092,1.68348 -2.70696,4.21257 0.2467,2.91566 2.84985,4.34074 4.52356,2.47655 0.70617,-0.78646 0.73666,-1.27713 0.1008,-1.61066 -0.38659,-0.20271 -0.53211,-0.13771 -0.75201,0.33547 -0.41473,0.8921 -1.2851,0.9953 -2.0522,0.24338 -0.58043,-0.569 -0.63472,-0.79002 -0.53307,-2.16765 0.15841,-2.14741 1.14691,-2.84099 2.35746,-1.65435 0.31994,0.31358 0.77904,0.53288 1.02038,0.48732 1.24827,-0.23567 -0.51116,-2.32263 -1.95805,-2.32263 z m 16.63857,0 -0.57988,2.14998 c -0.55311,2.05226 -0.74318,2.31243 -1.59766,2.18012 -0.10639,-0.0162 -0.19346,0.25486 -0.19346,0.60275 0,0.39342 0.14617,0.6319 0.38694,0.6319 0.4542,0 0.48066,0.23239 0.12907,1.13893 l -0.25848,0.6657 0.6948,-0.0801 c 0.53926,-0.0625 0.74365,-0.26438 0.91117,-0.90229 l 0.21531,-0.82225 h 1.01361 1.0131 l 0.16903,0.88567 c 0.14005,0.7313 0.28194,0.88517 0.81495,0.88517 h 0.64489 l -0.16957,-0.88517 c -0.11125,-0.58181 -0.0704,-0.88567 0.11863,-0.88567 0.15841,0 0.25021,-0.25589 0.20491,-0.56895 -0.0455,-0.31305 -0.25677,-0.56898 -0.46964,-0.56898 -0.26542,0 -0.5895,-0.69583 -1.0318,-2.21288 l -0.64542,-2.21237 -0.68544,-5.4e-4 z m -44.046204,0.0144 c -1.01539,-0.0344 -2.0355,0.52189 -2.47969,1.55397 -0.53093,1.23378 -0.45035,3.69498 0.15337,4.68791 0.80666,1.32634 1.97632,1.5911 3.68105,0.83262 l 1.09683,-0.48833 v -1.53005 -1.53004 H 22.32323 21.1619 v 0.6324 c 0,0.50585 0.12889,0.63242 0.6449,0.63242 0.46102,0 0.64541,0.13698 0.64541,0.47895 0,0.54432 -0.48051,0.78584 -1.56281,0.78584 -1.01249,0 -1.64157,-1.16356 -1.46399,-2.70802 0.2172,-1.88878 1.43856,-2.6617 2.47812,-1.56799 0.34721,0.36539 0.67085,0.4781 1.04223,0.36249 0.72646,-0.22598 0.67838,-0.54115 -0.21585,-1.4177 -0.48038,-0.47089 -1.08773,-0.70391 -1.69697,-0.72447 z m -12.7890296,0.0162 c -0.42651,-0.0126 -0.5366,0.17965 -0.76347,1.02817 -0.82778,3.09692 -0.94538,3.36613 -1.50455,3.44756 -0.63577,0.0927 -0.7889,1.05728 -0.16795,1.05728 0.45418,0 0.48052,0.23241 0.12889,1.13895 l -0.25848,0.6657 0.69535,-0.0801 c 0.53918,-0.0625 0.74315,-0.26439 0.91062,-0.90231 l 0.21583,-0.82224 h 1.01311 1.0131 l 0.16957,0.88566 c 0.13843,0.72372 0.28366,0.88519 0.7972696,0.88519 h 0.62824 l -0.16957,-0.88519 c -0.13681,-0.71431 -0.0889,-0.88566 0.24651,-0.88566 0.24375,0 0.41555,-0.20899 0.41555,-0.50552 0,-0.36357 -0.17209,-0.50603 -0.6116,-0.50603 -0.51294,0 -0.66271,-0.19366 -0.92936,-1.20135 -0.7741796,-2.92743 -0.9187596,-3.22157 -1.6257396,-3.304 -0.0751,-0.009 -0.14239,-0.0144 -0.20336,-0.0162 z m 47.7548136,0.0504 -2.00018,0.0223 c -2.08483,0.0232 -2.05067,0.002 -1.90293,1.1608 0.018,0.13915 0.5643,0.25275 1.21488,0.25275 0.65045,0 1.14035,0.0859 1.08851,0.18984 -0.7317,1.47188 -0.83763,1.58101 -1.53836,1.58101 -0.60279,0 -0.73279,0.10818 -0.73279,0.61106 0,0.33628 0.12961,0.65345 0.2876,0.70524 0.1839,0.0603 0.0909,0.40927 -0.25743,0.96939 -1.0031,1.61281 -0.85358,1.76098 1.77604,1.76098 h 2.32262 v -0.63241 -0.63242 h -1.56281 -1.5628 l 0.45714,-0.75877 c 0.36054,-0.59805 0.63677,-0.7588 1.30485,-0.7588 0.73199,0 0.84772,-0.0864 0.84772,-0.63241 0,-0.3934 -0.14653,-0.6324 -0.38745,-0.6324 -0.49844,0 -0.48897,-0.0758 0.12853,-1.06873 0.28328,-0.45541 0.51535,-1.12275 0.51591,-1.48272 z m -21.84913,0.0443 -0.7437,9.5e-4 c -0.79426,7.9e-4 -0.75485,-0.0787 -1.65849,3.35028 -0.23673,0.89828 -0.38762,1.07498 -0.918464,1.07498 -0.46304,0 -0.63499,0.13699 -0.63499,0.50603 0,0.29901 0.1721,0.50549 0.42075,0.50549 0.3369,0 0.39134,0.17713 0.27406,0.88569 -0.13195,0.79601 -0.0869,0.88515 0.445194,0.88515 0.44589,0 0.65088,-0.20224 0.8321,-0.8217 l 0.24028,-0.82173 h 1.00631 1.00583 l 0.21738,0.82173 c 0.17443,0.65987 0.34899,0.82224 0.88307,0.82224 0.42495,0 0.62136,-0.11431 0.54401,-0.31621 -0.45795,-1.19437 -0.47271,-1.45463 -0.0807,-1.45463 0.61508,0 0.48305,-0.85815 -0.17569,-1.14156 -0.45066,-0.19373 -0.70103,-0.70248 -1.11866,-2.27322 z m -21.890224,5.4e-4 -0.0718,3.6046 -0.0713,3.60408 h 1.57268 c 0.8648,0 1.79576,-0.11683 2.06884,-0.26004 l -5.2e-4,-5.1e-4 c 1.119,-0.587 1.70548,-2.92844 1.19615,-4.77476 -0.42248,-1.53151 -1.27383,-2.10351 -3.18749,-2.1427 z m 12.64443,0 -0.0713,3.6046 -0.0718,3.60458 h 0.65216 0.65217 v -1.23829 c 0,-0.86683 0.11574,-1.28088 0.38693,-1.38283 0.65348,-0.24594 1.00895,0.0572 1.59609,1.36464 0.46511,1.03527 0.68028,1.25598 1.2258,1.25598 0.36383,0 0.66155,-0.061 0.66155,-0.13519 0,-0.0738 -0.29441,-0.70462 -0.65478,-1.40159 l -0.65529,-1.26742 0.52579,-0.65582 c 0.34022,-0.42387 0.52632,-1.03168 0.52632,-1.72038 0,-1.56396 -0.55939,-1.94983 -2.89055,-1.99341 z m -11.48363,1.39118 h 0.89451 c 1.10488,0 1.52103,0.6356 1.52484,2.32888 0.002,1.42432 -0.60262,2.22381 -1.68503,2.22381 h -0.73432 v -2.27636 z m 12.64495,0 h 1.17744 1.17744 l -0.0807,0.8217 -0.0806,0.82224 -1.09631,0.0779 -1.09683,0.0774 -5.2e-4,-0.89972 z m -17.6136996,0.12637 0.28968,1.01154 c 0.41379,1.44565 0.3712,1.64445 -0.35261,1.64445 -0.35486,0 -0.64023,-0.0283 -0.63395,-0.0635 0.005,-0.0347 0.16562,-0.6326 0.35416,-1.32823 z m 24.9227536,0.0391 0.34116,1.11866 c 0.4524,1.48319 0.4495,1.49831 -0.29592,1.49831 -0.35484,0 -0.6454,-0.0635 -0.6454,-0.14095 0,-0.0772 0.13519,-0.66637 0.30008,-1.30848 z m 32.45179,0.57362 c 0.14995,0.0378 0.29205,0.41164 0.40877,1.11662 l 0.15337,0.92673 h -0.64333 -0.6428 l 0.26732,-1.1452 c 0.14905,-0.63801 0.30665,-0.93595 0.45661,-0.89815 z"
       id="rect828"
       inkscape:connector-curvature="0" />
  </g>
</svg>
